<?xml version="1.0" encoding="UTF-8" standalone="no"?>
<!-- Created with Inkscape (http://www.inkscape.org/) -->

<svg
   xmlns:dc="http://purl.org/dc/elements/1.1/"
   xmlns:cc="http://creativecommons.org/ns#"
   xmlns:rdf="http://www.w3.org/1999/02/22-rdf-syntax-ns#"
   xmlns:svg="http://www.w3.org/2000/svg"
   xmlns="http://www.w3.org/2000/svg"
   xmlns:sodipodi="http://sodipodi.sourceforge.net/DTD/sodipodi-0.dtd"
   xmlns:inkscape="http://www.inkscape.org/namespaces/inkscape"
   width="33.352783mm"
   height="16.494473mm"
   viewBox="0 0 33.352784 16.494473"
   version="1.1"
   id="svg878"
   inkscape:version="0.92.5 (2060ec1f9f, 2020-04-08)"
   sodipodi:docname="ichtys.svg">
  <defs
     id="defs872" />
  <sodipodi:namedview
     id="base"
     pagecolor="#ffffff"
     bordercolor="#666666"
     borderopacity="1.0"
     inkscape:pageopacity="0.0"
     inkscape:pageshadow="2"
     inkscape:zoom="2.8"
     inkscape:cx="-33.628466"
     inkscape:cy="-4.8700155"
     inkscape:document-units="mm"
     inkscape:current-layer="layer1"
     showgrid="false"
     fit-margin-top="0"
     fit-margin-left="0"
     fit-margin-right="0"
     fit-margin-bottom="0"
     inkscape:window-width="2560"
     inkscape:window-height="1409"
     inkscape:window-x="5120"
     inkscape:window-y="0"
     inkscape:window-maximized="1" />
  <metadata
     id="metadata875">
    <rdf:RDF>
      <cc:Work
         rdf:about="">
        <dc:format>image/svg+xml</dc:format>
        <dc:type
           rdf:resource="http://purl.org/dc/dcmitype/StillImage" />
        <dc:title></dc:title>
      </cc:Work>
    </rdf:RDF>
  </metadata>
  <g
     inkscape:label="Layer 1"
     inkscape:groupmode="layer"
     id="layer1"
     transform="translate(-5.930675,-3.4435202)">
    <path
       class="fil3"
       d="m 26.050556,6.4034391 c 2.130554,0.888282 4.126632,2.217817 6.017164,3.7884929 l 0.03953,-7.26e-4 c 0.568828,-0.7324779 1.274271,-1.4379029 1.816379,-2.1426949 v 0 c 1.322104,-1.833366 2.180221,-2.810619 3.938916,-4.449541 0.188249,-0.16244 0.461313,-0.206276 0.703326,-0.0899 0.322684,0.155163 0.461237,0.552599 0.320551,0.874127 -0.51456,1.271912 -1.513011,3.063527 -2.046106,3.783443 -0.160304,0.255363 -0.351148,0.510224 -0.51305,0.726139 -0.109665,0.161318 -0.256533,0.363111 -0.366187,0.52444 -0.54117,0.7158089 -1.035236,1.2850069 -1.47709,1.8582969 -0.146882,0.201792 -0.331003,0.444055 -0.556495,0.646968 0.0413,0.03935 0.124111,0.118054 0.165469,0.157405 0.1241,0.118054 0.248207,0.236108 0.333027,0.354712 0.124094,0.118064 0.248195,0.236107 0.374371,0.394073 0.165467,0.157415 0.289577,0.275459 0.457114,0.472776 l 1.969099,2.328421 v 0 0 c 0.795548,0.991725 1.380413,2.283096 1.942132,3.327319 0.169603,0.237239 0.146812,0.557073 -0.03934,0.759437 -0.221343,0.282736 -0.614395,0.288331 -0.901903,0.05278 l -1.480991,-1.256988 v 0 c -0.002,-0.03988 -0.04136,-0.03935 -0.04343,-0.07923 l -0.750835,-0.828051 v 0 c -0.211387,-0.159069 -0.374399,-0.430587 -0.541971,-0.591473 -0.08478,-0.118614 -0.210969,-0.27658 -0.293713,-0.355283 -0.04135,-0.03935 -0.08478,-0.118614 -0.165468,-0.157405 -0.08272,-0.0787 -0.165467,-0.157405 -0.250267,-0.276009 -0.293711,-0.355282 -1.166579,-1.261483 -1.871902,-1.970356 -0.206847,-0.196757 -0.415752,-0.433424 -0.579155,-0.550907 l -0.825424,0.770617 v 0 l -0.03724,0.04051 c -0.413746,0.365352 -0.866798,0.731276 -1.319843,1.097189 -0.455101,0.326002 -0.949517,0.652563 -1.443927,0.979126 -1.412892,0.818938 -2.831983,1.51814 -4.342082,1.978992 -1.54939,0.461413 -3.150475,0.683915 -4.962538,0.629858 -2.010653,-0.09119 -3.841297,-0.50445 -5.568499,-1.198769 C 12.022991,17.3069 10.399239,16.331527 8.8044615,15.156044 8.599687,14.9992 7.6564764,14.253768 6.9552838,13.624708 6.5829691,13.270547 6.2127168,12.956307 6.0431161,12.719079 5.9148774,12.521201 5.9045538,12.321642 5.9707651,12.08107 6.0742162,11.800005 6.225233,11.678038 6.3741816,11.516148 v 0 0 c 0.097538,-0.116704 0.2074644,-0.230839 0.297896,-0.323759 0.1861902,-0.202352 0.3723768,-0.404714 0.5585638,-0.607066 v 0 0 c 1.121247,-1.1342989 2.2548953,-2.0291359 3.4340346,-2.8047879 1.220509,-0.736312 2.486523,-1.353458 3.953178,-1.893574 0.618517,-0.208508 1.278401,-0.377675 1.940358,-0.50693 0.661947,-0.129245 1.3632,-0.259051 2.029287,-0.308483 2.705698,-0.158365 5.169322,0.325764 7.463283,1.331539 z m -16.2159486,5.8625779 0.00203,0.03988 c 0.1634026,0.117493 0.3268096,0.234997 0.4902196,0.35248 1.634079,1.174932 3.135788,2.072173 4.701642,2.68891 1.563797,0.576826 3.233105,0.912508 5.200309,0.924431 1.338388,0.02084 2.778111,-0.279221 4.128919,-0.777743 1.545265,-0.541237 3.038834,-1.321374 4.251069,-2.217333 0.599972,-0.440383 1.107168,-0.862653 1.623912,-1.301223 -0.584017,-0.368032 -1.105142,-0.85189 -1.714755,-1.213723 -0.814954,-0.547554 -1.743716,-1.0136129 -2.670403,-1.4397499 -0.926687,-0.426137 -1.847177,-0.732549 -2.724227,-0.959707 -1.991994,-0.490846 -4.075042,-0.461176 -6.019531,-0.03407 -2.060325,0.468691 -4.019331,1.37529 -5.684623,2.6371519 v 0 z"
       id="path289"
       inkscape:connector-curvature="0"
       style="clip-rule:evenodd;fill:#feba2a;fill-opacity:1;fill-rule:nonzero;stroke-width:0.03911811;image-rendering:optimizeQuality;shape-rendering:geometricPrecision;text-rendering:geometricPrecision"
       sodipodi:nodetypes="cccccccccccccccccccccccccccccccccccccccccscccccccccccccccccccccccccccccccc" />
  </g>
</svg>
