<?xml version="1.0" encoding="UTF-8" standalone="no"?>
<!-- Created with Inkscape (http://www.inkscape.org/) -->

<svg
   xmlns:dc="http://purl.org/dc/elements/1.1/"
   xmlns:cc="http://creativecommons.org/ns#"
   xmlns:rdf="http://www.w3.org/1999/02/22-rdf-syntax-ns#"
   xmlns:svg="http://www.w3.org/2000/svg"
   xmlns="http://www.w3.org/2000/svg"
   xmlns:sodipodi="http://sodipodi.sourceforge.net/DTD/sodipodi-0.dtd"
   xmlns:inkscape="http://www.inkscape.org/namespaces/inkscape"
   width="72mm"
   height="72mm"
   viewBox="0 0 72 72"
   version="1.1"
   id="svg8"
   inkscape:version="0.92.5 (2060ec1f9f, 2020-04-08)"
   sodipodi:docname="logo.svg"
   inkscape:export-filename="/home/tairaksinen/ohjelmointi/and-bible/and-bible/logo.png"
   inkscape:export-xdpi="104.88"
   inkscape:export-ydpi="104.88">
  <defs
     id="defs2">
    <style
       id="style879"
       type="text/css"><![CDATA[
    .fil6 {fill:#FEBA2A}
    .fil2 {fill:#03BDEB;fill-rule:nonzero}
    .fil0 {fill:#336699;fill-rule:nonzero}
    .fil4 {fill:#4D4D4D;fill-rule:nonzero}
    .fil1 {fill:#6699FF;fill-rule:nonzero}
    .fil3 {fill:gray;fill-rule:nonzero}
    .fil5 {fill:#FEBA2A;fill-rule:nonzero}
   ]]></style>
    <style
       id="style921"
       type="text/css"><![CDATA[
    .fil2 {fill:none}
    .fil5 {fill:none;fill-rule:nonzero}
    .fil1 {fill:#363535}
    .fil0 {fill:#4D4D4D}
    .fil4 {fill:#E6A009}
    .fil3 {fill:#FEBA2A;fill-rule:nonzero}
   ]]></style>
    <clipPath
       id="id0">
      <path
         id="path923"
         d="M 1,0 H 7 C 7,0 8,0 8,1 V 7 C 8,7 7,8 7,8 H 1 C 0,8 0,7 0,7 V 1 C 0,0 0,0 1,0 Z"
         inkscape:connector-curvature="0" />
    </clipPath>
    <clipPath
       id="id1">
      <path
         id="path926"
         d="M 1,0 H 7 C 7,0 8,0 8,1 V 7 C 8,7 7,8 7,8 H 1 C 0,8 0,7 0,7 V 1 C 0,0 0,0 1,0 Z"
         inkscape:connector-curvature="0" />
    </clipPath>
    <clipPath
       id="id2">
      <path
         id="path929"
         d="M 1,0 H 7 C 7,0 8,0 8,1 V 7 C 8,7 7,8 7,8 H 1 C 0,8 0,7 0,7 V 1 C 0,0 0,0 1,0 Z"
         inkscape:connector-curvature="0" />
    </clipPath>
    <clipPath
       style="clip-rule:nonzero"
       id="id3">
      <path
         id="path932"
         d="M 4,3 C 5,3 5,3 5,4 V 4 C 5,4 5,4 5,4 6,4 6,3 6,3 6,3 6,3 6,3 6,3 6,3 6,3 V 3 3 3 C 6,3 6,3 6,3 V 3 C 6,3 6,3 6,3 6,3 6,3 6,3 V 3 C 6,3 6,3 6,3 6,3 6,3 6,3 V 3 3 3 C 6,3 6,3 6,3 6,3 6,3 6,3 V 3 3 3 C 6,3 6,3 6,3 V 3 3 C 6,3 6,4 6,4 6,4 6,4 6,4 6,4 6,4 6,4 6,4 6,4 6,4 6,4 6,4 6,4 6,4 6,4 6,4 6,4 6,4 6,4 6,4 6,4 6,4 V 4 4 4 C 6,5 6,5 6,5 V 5 5 5 C 6,5 6,5 6,5 V 5 C 6,5 6,5 6,5 6,5 6,5 6,5 V 5 5 C 6,5 6,5 6,5 V 5 5 5 C 6,5 6,5 6,5 6,5 6,5 6,5 6,5 6,5 6,5 6,5 6,5 6,5 6,5 6,4 5,4 5,4 5,4 5,4 V 4 4 4 C 5,4 5,4 5,4 5,5 5,5 5,5 5,5 4,5 4,5 4,5 4,5 3,5 3,5 3,5 2,5 2,5 2,5 2,4 2,4 2,4 1,4 1,4 1,4 1,4 1,4 1,4 1,4 1,4 1,4 1,4 V 4 4 C 1,4 1,4 1,4 1,4 1,4 1,4 V 4 H 2 V 4 4 C 2,3 2,3 2,3 2,3 2,3 3,3 3,3 3,3 3,3 3,3 3,3 3,3 4,3 4,3 4,3 Z M 2,4 C 2,4 2,4 2,4 2,4 2,4 2,4 2,4 2,4 3,4 3,4 3,5 3,5 4,5 4,5 4,4 4,4 5,4 5,4 5,4 5,4 5,4 V 4 C 5,4 5,4 5,4 5,4 5,4 5,4 5,4 5,4 4,4 4,3 4,3 4,3 4,3 3,3 3,3 3,3 2,4 2,4 Z"
         inkscape:connector-curvature="0" />
    </clipPath>
    <style
       id="style1000"
       type="text/css"><![CDATA[
    .fil0 {fill:#4D4D4D}
    .fil2 {fill:#FEBA2A}
    .fil1 {fill:#FEBA2A;fill-rule:nonzero}
   ]]></style>
    <style
       id="style1030"
       type="text/css"><![CDATA[
    .str0 {stroke:#FEBA2A;stroke-width:0.0833385}
    .str1 {stroke:white;stroke-width:0.202087}
    .fil3 {fill:none}
    .fil6 {fill:none;fill-rule:nonzero}
    .fil2 {fill:#454444}
    .fil1 {fill:#4D4D4D}
    .fil5 {fill:#F0A400}
    .fil4 {fill:#FEBA2A;fill-rule:nonzero}
    .fil0 {fill:white;fill-rule:nonzero}
   ]]></style>
    <clipPath
       id="id0-3">
      <path
         id="path1032"
         d="m 3,0 h 5 c 1,0 2,1 2,2 V 7 C 10,8 9,9 8,9 H 3 C 2,9 1,8 1,7 V 2 C 1,1 2,0 3,0 Z"
         inkscape:connector-curvature="0" />
    </clipPath>
    <clipPath
       style="clip-rule:nonzero"
       id="id1-6">
      <path
         id="path1035"
         d="M 6,2 C 7,3 7,3 7,3 V 3 C 7,3 7,3 8,3 8,3 8,3 8,3 8,3 8,3 8,3 8,3 8,3 8,3 V 3 3 2 C 8,2 8,2 8,2 H 9 C 9,2 9,2 9,2 9,2 9,2 9,2 V 3 C 9,3 8,3 8,3 8,3 8,3 8,3 V 3 3 3 C 8,3 8,3 8,3 8,3 8,3 8,3 V 3 3 3 C 8,3 8,3 8,3 V 3 3 C 8,3 8,3 8,3 8,3 8,3 8,3 8,3 8,3 8,3 8,3 8,3 8,4 8,4 8,4 8,4 8,4 8,4 8,4 8,4 8,4 8,4 8,4 8,4 8,4 V 4 4 4 C 8,4 8,4 8,4 V 4 4 4 C 8,4 8,4 8,4 L 9,5 C 9,5 9,5 9,5 9,5 9,5 9,5 H 8 V 5 C 8,5 8,5 8,5 V 5 5 5 C 8,5 8,5 8,5 8,5 8,4 8,4 8,4 8,4 8,4 8,4 8,4 8,4 8,4 8,4 8,4 7,4 7,4 7,4 V 4 4 4 C 7,4 7,4 7,4 7,4 7,4 7,4 6,5 6,5 6,5 5,5 5,5 5,5 4,5 4,5 4,5 3,5 3,4 3,4 3,4 2,4 2,4 2,4 2,4 2,4 2,4 2,4 2,3 2,3 2,3 2,3 V 3 3 C 2,3 2,3 2,3 2,3 2,3 2,3 V 3 3 3 3 C 3,3 3,3 3,3 3,3 4,2 4,2 4,2 4,2 4,2 4,2 5,2 5,2 5,2 6,2 6,2 Z M 3,4 C 3,4 3,4 3,4 3,4 3,4 3,4 3,4 4,4 4,4 4,4 5,4 5,4 5,4 6,4 6,4 6,4 6,4 7,4 7,4 7,4 7,4 V 4 C 7,4 7,4 7,4 7,3 7,3 7,3 7,3 6,3 6,3 6,3 6,3 6,3 5,3 5,3 4,3 4,3 4,3 3,3 v 0 z"
         inkscape:connector-curvature="0" />
    </clipPath>
    <style
       id="style1172"
       type="text/css"><![CDATA[
    .str0 {stroke:#FEBA2A;stroke-width:0.0833385}
    .str1 {stroke:white;stroke-width:0.202087}
    .fil3 {fill:none}
    .fil6 {fill:none;fill-rule:nonzero}
    .fil2 {fill:#454444}
    .fil1 {fill:#4D4D4D}
    .fil5 {fill:#F0A400}
    .fil4 {fill:#FEBA2A;fill-rule:nonzero}
    .fil0 {fill:white;fill-rule:nonzero}
   ]]></style>
    <clipPath
       id="id0-7">
      <path
         id="path1174"
         d="m 3,0 h 5 c 1,0 2,1 2,2 V 7 C 10,8 9,9 8,9 H 3 C 2,9 1,8 1,7 V 2 C 1,1 2,0 3,0 Z"
         inkscape:connector-curvature="0" />
    </clipPath>
    <clipPath
       style="clip-rule:nonzero"
       id="id1-5">
      <path
         id="path1177"
         d="M 6,2 C 7,3 7,3 7,3 V 3 C 7,3 7,3 8,3 8,3 8,3 8,3 8,3 8,3 8,3 8,3 8,3 8,3 V 3 3 2 C 8,2 8,2 8,2 H 9 C 9,2 9,2 9,2 9,2 9,2 9,2 V 3 C 9,3 8,3 8,3 8,3 8,3 8,3 V 3 3 3 C 8,3 8,3 8,3 8,3 8,3 8,3 V 3 3 3 C 8,3 8,3 8,3 V 3 3 C 8,3 8,3 8,3 8,3 8,3 8,3 8,3 8,3 8,3 8,3 8,3 8,4 8,4 8,4 8,4 8,4 8,4 8,4 8,4 8,4 8,4 8,4 8,4 8,4 V 4 4 4 C 8,4 8,4 8,4 V 4 4 4 C 8,4 8,4 8,4 L 9,5 C 9,5 9,5 9,5 9,5 9,5 9,5 H 8 V 5 C 8,5 8,5 8,5 V 5 5 5 C 8,5 8,5 8,5 8,5 8,4 8,4 8,4 8,4 8,4 8,4 8,4 8,4 8,4 8,4 8,4 7,4 7,4 7,4 V 4 4 4 C 7,4 7,4 7,4 7,4 7,4 7,4 6,5 6,5 6,5 5,5 5,5 5,5 4,5 4,5 4,5 3,5 3,4 3,4 3,4 2,4 2,4 2,4 2,4 2,4 2,4 2,4 2,3 2,3 2,3 2,3 V 3 3 C 2,3 2,3 2,3 2,3 2,3 2,3 V 3 3 3 3 C 3,3 3,3 3,3 3,3 4,2 4,2 4,2 4,2 4,2 4,2 5,2 5,2 5,2 6,2 6,2 Z M 3,4 C 3,4 3,4 3,4 3,4 3,4 3,4 3,4 4,4 4,4 4,4 5,4 5,4 5,4 6,4 6,4 6,4 6,4 7,4 7,4 7,4 7,4 V 4 C 7,4 7,4 7,4 7,3 7,3 7,3 7,3 6,3 6,3 6,3 6,3 6,3 5,3 5,3 4,3 4,3 4,3 3,3 v 0 z"
         inkscape:connector-curvature="0" />
    </clipPath>
    <style
       id="style1314"
       type="text/css"><![CDATA[
    .fil3 {fill:none}
    .fil9 {fill:none;fill-rule:nonzero}
    .fil5 {fill:#00CCFF}
    .fil7 {fill:#03BDEB}
    .fil0 {fill:#4D4D4D}
    .fil4 {fill:#6699FF}
    .fil1 {fill:#FEBA2A}
    .fil6 {fill:fuchsia}
    .fil2 {fill:#FFAE00}
    .fil8 {fill:#666666;fill-rule:nonzero}
   ]]></style>
    <clipPath
       id="id0-35">
      <path
         id="path1316"
         d="m 1,0 h 8 c 0,0 1,0 1,1 v 8 c 0,0 -1,1 -1,1 H 1 C 0,10 0,9 0,9 V 1 C 0,0 0,0 1,0 Z"
         inkscape:connector-curvature="0" />
    </clipPath>
    <clipPath
       id="id1-62">
      <path
         id="path1319"
         d="m 1,0 h 8 c 0,0 1,0 1,1 v 8 c 0,0 -1,1 -1,1 H 1 C 0,10 0,9 0,9 V 1 C 0,0 0,0 1,0 Z"
         inkscape:connector-curvature="0" />
    </clipPath>
    <clipPath
       id="id2-9">
      <path
         id="path1322"
         d="m 1,0 h 8 c 0,0 1,0 1,1 v 8 c 0,0 -1,1 -1,1 H 1 C 0,10 0,9 0,9 V 1 C 0,0 0,0 1,0 Z"
         inkscape:connector-curvature="0" />
    </clipPath>
    <clipPath
       style="clip-rule:nonzero"
       id="id3-1">
      <path
         id="path1325"
         d="M 6,3 C 6,3 6,3 7,4 V 4 C 7,4 7,4 7,4 7,4 7,4 7,4 7,3 7,3 7,3 7,3 7,3 7,3 V 3 3 3 C 7,3 7,3 7,3 H 8 C 8,3 8,2 8,3 8,3 8,3 8,3 V 3 C 8,3 8,3 8,3 8,3 8,3 8,3 V 3 3 3 C 8,3 8,3 8,3 8,3 8,3 8,3 V 3 3 H 7 C 7,3 7,4 7,4 V 4 4 C 7,4 7,4 7,4 7,4 7,4 7,4 7,4 7,4 7,4 7,4 7,4 7,4 7,4 7,4 7,4 7,4 7,4 7,4 7,4 7,4 7,4 7,4 7,4 7,4 L 8,5 V 5 5 C 8,5 8,5 8,5 V 5 5 5 C 8,5 8,5 8,5 V 5 C 8,5 8,6 8,6 8,6 8,6 8,6 L 7,5 V 5 C 7,5 7,5 7,5 V 5 5 5 C 7,5 7,5 7,5 7,5 7,5 7,5 7,5 7,5 7,5 7,5 7,5 7,5 7,5 7,5 7,5 7,4 7,4 7,4 L 6,5 V 5 5 C 6,5 6,5 6,5 6,5 6,5 6,5 6,5 5,5 5,5 5,5 4,5 4,5 4,5 3,5 3,5 3,5 2,5 2,5 2,5 2,4 2,4 2,4 2,4 2,4 2,4 2,4 2,4 2,4 2,4 2,4 V 4 4 C 2,4 2,4 2,4 2,4 2,4 2,4 V 4 4 4 4 C 2,4 2,3 3,3 3,3 3,3 3,3 3,3 4,3 4,3 4,3 4,3 4,3 5,3 5,3 6,3 Z M 2,4 C 2,4 2,4 2,4 2,4 2,4 2,4 3,4 3,5 3,5 4,5 4,5 4,5 5,5 5,5 5,5 5,5 6,4 6,4 6,4 6,4 6,4 V 4 C 6,4 6,4 6,4 6,4 6,4 6,4 6,4 6,4 5,4 5,3 5,3 5,3 5,3 4,3 4,3 3,3 3,4 3,4 v 0 z"
         inkscape:connector-curvature="0" />
    </clipPath>
    <style
       id="style268"
       type="text/css"><![CDATA[
    .str0 {stroke:#E6E6E6;stroke-width:10.7538}
    .str1 {stroke:#FEBA2A;stroke-width:26.0676}
    .fil2 {fill:none}
    .fil5 {fill:none;fill-rule:nonzero}
    .fil1 {fill:#454444}
    .fil0 {fill:#4D4D4D}
    .fil4 {fill:#F0A400}
    .fil6 {fill:#E6E6E6;fill-rule:nonzero}
    .fil3 {fill:#FEBA2A;fill-rule:nonzero}
   ]]></style>
    <clipPath
       id="id0-2">
      <path
         id="path270"
         d="m 234,0 h 721 c 129,0 234,105 234,234 v 721 c 0,129 -105,234 -234,234 H 234 C 105,1189 0,1084 0,955 V 234 C 0,105 105,0 234,0 Z"
         inkscape:connector-curvature="0" />
    </clipPath>
    <clipPath
       style="clip-rule:nonzero"
       id="id1-7">
      <path
         id="path273"
         d="m 689,309 c 53,23 102,57 148,97 h 1 c 4,-4 10,-11 16,-18 5,-5 10,-10 14,-14 5,-5 9,-10 14,-15 0,-1 1,-1 1,-1 l 4,-5 v 0 l 50,-62 c 1,-1 2,-2 3,-3 l 53,-45 c 5,-4 12,-5 18,-2 8,4 11,14 7,22 l -33,61 c -4,8 -8,13 -12,17 0,0 0,1 -1,1 l -1,2 v 0 h -1 c -1,2 -3,5 -5,7 -1,2 -3,4 -4,6 v 0 l -8,11 h -1 c -1,3 -2,4 -3,5 l -1,1 -1,1 c -3,4 -7,9 -10,13 -8,11 -17,22 -24,30 -5,5 -11,10 -16,16 -4,5 -9,11 -15,16 1,1 3,3 4,4 3,3 6,6 8,9 3,3 6,6 9,10 4,4 7,7 11,12 l 47,59 v 0 0 c 3,4 5,6 7,9 v 0 l 2,4 v 0 c 1,1 1,1 2,2 l 34,69 c 4,6 3,14 -2,19 -6,7 -16,7 -23,1 l -36,-32 v 0 c 0,-1 -1,-1 -1,-2 l -18,-21 v 0 h -1 c -5,-7 -8,-11 -12,-15 -2,-3 -5,-7 -7,-9 -1,-1 -2,-3 -4,-4 -2,-2 -4,-4 -6,-7 -7,-9 -28,-32 -45,-50 -5,-5 -10,-11 -14,-14 l -22,19 v 0 l -1,1 c -11,9 -23,18 -35,27 -12,8 -25,16 -38,24 -37,20 -74,37 -113,48 -40,11 -81,16 -127,14 -51,-3 -97,-14 -140,-32 -43,-18 -83,-43 -122,-73 -5,-4 -28,-23 -45,-39 -9,-9 -18,-17 -22,-23 -3,-5 -3,-10 -1,-16 3,-7 7,-10 11,-14 v 0 0 c 1,-1 2,-2 3,-3 1,-2 3,-3 5,-5 v 0 l 15,-15 v 0 0 c 30,-28 60,-50 91,-69 32,-18 65,-33 103,-46 16,-5 33,-9 50,-12 17,-3 35,-6 52,-7 69,-3 131,10 188,36 z M 269,450 c 0,0 0,0 0,1 4,3 8,6 12,9 40,30 77,53 116,69 39,15 81,24 131,25 34,1 71,-6 106,-18 40,-13 79,-32 111,-54 6,-4 25,-18 40,-29 l 3,-3 c -1,0 -2,-1 -3,-2 -15,-12 -34,-26 -39,-29 -20,-14 -43,-26 -66,-37 -23,-11 -46,-19 -68,-25 -50,-13 -103,-13 -153,-3 -53,11 -104,33 -148,64 v 0 z"
         inkscape:connector-curvature="0" />
    </clipPath>
  </defs>
  <sodipodi:namedview
     id="base"
     pagecolor="#ffffff"
     bordercolor="#666666"
     borderopacity="1.0"
     inkscape:pageopacity="0.0"
     inkscape:pageshadow="2"
     inkscape:zoom="1.4142136"
     inkscape:cx="91.035831"
     inkscape:cy="99.60029"
     inkscape:document-units="mm"
     inkscape:current-layer="g1598"
     showgrid="false"
     inkscape:snap-global="false"
     inkscape:window-width="2560"
     inkscape:window-height="1409"
     inkscape:window-x="5120"
     inkscape:window-y="0"
     inkscape:window-maximized="1"
     fit-margin-top="0"
     fit-margin-left="0"
     fit-margin-right="0"
     fit-margin-bottom="0" />
  <metadata
     id="metadata5">
    <rdf:RDF>
      <cc:Work
         rdf:about="">
        <dc:format>image/svg+xml</dc:format>
        <dc:type
           rdf:resource="http://purl.org/dc/dcmitype/StillImage" />
        <dc:title></dc:title>
      </cc:Work>
    </rdf:RDF>
  </metadata>
  <g
     inkscape:label="Layer 1"
     inkscape:groupmode="layer"
     id="layer1"
     transform="translate(-8.8797463,-36.474906)">
    <g
       id="g1598"
       transform="matrix(0.5808511,0,0,0.5808511,-11.00957,15.835528)">
      <path
         style="fill:#65713f;fill-opacity:1;stroke-width:0.26458332"
         d="m 89.105673,146.51194 c -9.804231,-4.86773 -20.93931,-7.67996 -34.75527,-8.77763 -3.253843,-0.25851 -13.767993,-0.35134 -17.594791,-0.15534 l -0.926042,0.0474 -0.06713,-34.91079 c -0.03692,-19.200936 0.02261,-34.998176 0.132291,-35.104976 0.10968,-0.1068 2.190857,-0.27897 4.624837,-0.3826 3.406331,-0.14504 4.518274,-0.11136 4.828645,0.14622 0.356804,0.29612 0.403228,3.70612 0.403228,29.61809 0,22.423216 0.07438,29.357806 0.3175,29.600926 0.174625,0.17463 0.641257,0.3175 1.036963,0.3175 1.064151,0 7.154651,1.24413 9.890329,2.02033 12.874918,3.65305 23.455765,8.77841 32.279166,15.63603 3.126849,2.43022 4.858171,4.01997 4.365625,4.00866 -0.218281,-0.005 -2.259192,-0.93375 -4.535355,-2.06385 z"
         id="path840"
         inkscape:connector-curvature="0" />
      <path
         style="fill:#00050b;fill-opacity:1;stroke-width:0.26458332"
         d="m 145.15858,47.06431 c -1.53634,-0.03319 -8.29969,1.943971 -13.30203,3.923792 -12.64417,5.0043 -21.55891,12.239535 -25.98136,21.087085 -1.48673,2.974348 -2.88601,7.660817 -2.96571,9.932726 -0.78095,11.274131 -0.54639,47.872677 -0.54519,64.991377 0.18196,0.31216 0.35967,0.54881 0.42323,0.54881 0.0755,0 0.49419,-0.7196 0.9307,-1.59939 2.68321,-5.40805 8.24268,-11.0497 15.75769,-15.99075 6.30711,-4.14686 14.32711,-8.28473 21.96042,-11.33058 l 4.23333,-1.6893 0.0667,-34.841283 c 0.0602,-31.25321 0.0249,-34.857848 -0.34261,-34.998898 -0.0539,-0.02066 -0.13271,-0.03138 -0.23513,-0.03359 z"
         id="path832"
         inkscape:connector-curvature="0"
         sodipodi:nodetypes="cssccsssccccc" />
      <path
         style="fill:#fb8b01;fill-opacity:1;stroke-width:0.26458332"
         d="m 93.692353,144.9736 c -1.60073,-1.63343 -3.86292,-3.72649 -5.02708,-4.65125 -8.982031,-7.13491 -22.521784,-13.24233 -36.11076,-16.2886 -1.670812,-0.37455 -3.127505,-0.822 -3.237095,-0.99434 -0.10959,-0.17233 -0.201078,-15.8845 -0.203306,-34.915906 -0.0035,-30.31816 0.04446,-34.62119 0.387776,-34.75293 1.174218,-0.4506 15.303093,3.61012 19.598913,5.63283 l 1.043635,0.4914 0.06728,29.81887 0.06728,29.818866 2.578556,2.04383 c 9.250174,7.33193 17.469351,15.72165 21.392311,21.83619 1.36583,2.12885 2.54552,4.41272 2.43412,4.71242 -0.0447,0.12017 -1.3909,-1.11795 -2.99163,-2.75138 z"
         id="path828"
         inkscape:connector-curvature="0" />
      <path
         style="fill:#dd9b2d;fill-opacity:1;stroke-width:0.26458332"
         d="m 97.544833,142.69231 c -3.31801,-6.84082 -7.6049,-12.63944 -14.23112,-19.24956 -2.19386,-2.18853 -5.26875,-5.02575 -6.8331,-6.30494 l -2.84427,-2.3258 V 79.923714 c 0,-19.18857 0.10112,-34.9508 0.22472,-35.02719 0.3406,-0.2105 3.79878,1.52532 6.36044,3.19261 9.44045,6.14443 15.96956,15.37616 18.40201,26.01921 1.20449,5.27017 1.20657,5.33898 1.20657,39.818046 0,17.97279 -0.0893,32.67362 -0.19843,32.66852 -0.10915,-0.005 -1.04821,-1.76126 -2.08682,-3.9026 z"
         id="path830"
         inkscape:connector-curvature="0" />
      <path
         style="fill:#305029;fill-opacity:1;stroke-width:0.26458332"
         d="m 107.0024,147.56018 c 0,-0.14117 0.46922,-0.95485 1.04272,-1.80817 3.7239,-5.54092 9.50062,-11.16834 15.75832,-15.35102 6.33602,-4.23503 15.89468,-8.28895 23.27625,-9.87167 1.4513,-0.31118 2.7294,-0.7084 2.84021,-0.88272 0.11082,-0.17431 0.2033,-12.38808 0.20553,-27.141706 l 0.004,-26.82479 3.3201,0.1279 c 1.82605,0.0703 3.43386,0.24167 3.57291,0.38072 0.15872,0.15872 0.22782,12.45978 0.18564,33.04689 l -0.0672,32.794056 -1.98437,-0.13229 c -4.03437,-0.26896 -12.02595,-0.0701 -15.21355,0.37856 -10.91047,1.53569 -19.96913,5.13271 -27.57496,10.94949 -1.1321,0.8658 -2.35603,1.89773 -2.71983,2.29315 -0.95426,1.03721 -2.64583,2.34248 -2.64583,2.0416 z"
         id="path846"
         inkscape:connector-curvature="0" />
      <path
         class="fil3"
         d="m 133.59862,93.401682 c -1.38248,4.263261 -3.51857,8.636038 -6.0683,13.014708 l 0.003,0.0659 c 0.28206,0.12753 0.7725,0.28497 1.26296,0.44241 0.35258,0.1594 0.70514,0.31883 0.9872,0.44636 0.35258,0.15941 0.70199,0.25308 1.05456,0.41249 0.0674,-0.0338 0.0705,0.0319 0.0705,0.0319 l 0.34942,0.0937 v 0 l 4.3341,1.18779 c 0.0705,0.0319 0.14103,0.0638 0.21154,0.0957 l 3.19834,1.96068 c 0.28521,0.19327 0.37462,0.61963 0.19142,1.11568 -0.24426,0.6614 -0.90847,1.19724 -1.45999,1.20517 l -4.21318,-0.10403 c -0.83511,-0.0437 -1.56068,-0.33583 -2.29848,-0.46048 -0.44076,-0.0755 -0.88236,-0.20278 -1.2565,-0.31097 -0.27891,-0.0618 -0.62833,-0.15545 -0.90724,-0.21725 -0.76621,-0.15347 -1.53556,-0.3727 -2.09654,-0.56201 -0.35256,-0.15942 -0.70829,-0.38457 -1.12822,-0.51013 -0.34942,-0.0937 -0.76936,-0.21922 -1.12508,-0.44438 -0.0642,0.0995 -0.19265,0.29881 -0.25687,0.39842 -0.19264,0.29881 -0.38529,0.59763 -0.58108,0.83072 -0.19265,0.2988 -0.38529,0.59761 -0.6453,0.93032 -0.25688,0.3984 -0.44952,0.69723 -0.77375,1.1295 l -3.82651,5.08781 v 0 0 c -0.26002,0.33269 -0.38845,0.5319 -0.58425,0.76497 v 0 l -0.26316,0.26694 v 0 c -0.0642,0.0996 -0.0642,0.0996 -0.12843,0.1992 l -4.5411,4.57175 c -0.3916,0.46616 -0.93366,0.67128 -1.28624,0.51193 -0.49046,-0.15742 -0.52194,-0.8149 -0.1398,-1.47827 l 2.04231,-3.45036 v 0 c 0.0673,-0.0338 0.0642,-0.0996 0.13157,-0.13344 l 1.35798,-1.8945 v 0 l -0.003,-0.0659 c 0.45581,-0.56574 0.71582,-0.89842 0.97268,-1.29685 0.1958,-0.23307 0.45581,-0.56575 0.58425,-0.76497 0.0642,-0.0996 0.19579,-0.23306 0.25686,-0.39842 0.12842,-0.1992 0.25686,-0.39842 0.45265,-0.63148 0.58425,-0.76498 2.06751,-2.92443 3.22654,-4.65158 0.32108,-0.49804 0.70952,-1.02992 0.89901,-1.39447 l -1.34921,-0.80302 v 0 l -0.0705,-0.0319 c -0.64092,-0.41844 -1.28501,-0.90262 -1.92908,-1.3868 -0.57671,-0.51803 -1.15657,-1.10182 -1.73643,-1.68561 -1.46383,-1.7553 -2.72556,-3.61219 -3.5894,-5.803756 -0.86699,-2.257289 -1.33293,-4.783501 -1.34308,-7.875456 0.0415,-3.454558 0.63763,-6.85126 1.71478,-10.287771 1.07715,-3.436512 2.6353,-6.91282 4.53342,-10.492688 0.25371,-0.464164 1.46122,-2.619653 2.48552,-4.279089 0.57794,-0.896453 1.08851,-1.75904 1.4801,-2.225184 0.32739,-0.366546 0.66421,-0.535851 1.07469,-0.607523 0.48101,-0.03981 0.6957,0.121594 0.97776,0.249123 v 0 0 c 0.0705,0.03188 0.14104,0.06376 0.21154,0.09565 0.13788,-0.002 0.21155,0.09565 0.35257,0.159415 v 0 l 1.05772,0.478244 v 0 0 c 1.9807,1.024205 3.55721,2.251586 4.93477,3.646295 1.31335,1.494308 2.42776,3.155945 3.42318,5.21403 0.38721,0.882602 0.71022,1.864803 0.96585,2.880877 0.25563,1.016068 0.51441,2.09788 0.63531,3.181678 0.4194,4.434768 -0.26108,8.95111 -1.83306,13.578932 z m -10.82119,-22.838137 -0.0673,0.03379 c -0.18949,0.364555 -0.379,0.729123 -0.56849,1.093681 -1.89498,3.645615 -3.32785,6.856969 -4.28286,9.962773 -0.88766,3.071955 -1.36167,6.137967 -1.27157,9.459043 0.0397,2.269177 0.6278,4.464679 1.5464,6.359391 1.00172,2.189571 2.40448,4.110237 3.98729,5.469077 0.28836,0.25903 1.2913,1.03412 2.07956,1.64781 l 0.21154,0.0956 c -0.003,-0.0658 0.0611,-0.16537 0.12528,-0.26496 0.76114,-1.39249 1.64441,-3.1157 1.83076,-3.54601 0.88012,-1.788916 1.61608,-3.707387 2.28465,-5.591979 0.66858,-1.884595 1.13507,-3.667608 1.46998,-5.317152 0.71827,-3.727412 0.55136,-7.211862 -0.27976,-10.16046 -0.90793,-3.111971 -2.55058,-5.719976 -4.77746,-7.563024 v 0 z"
         id="path289"
         inkscape:connector-curvature="0"
         style="clip-rule:evenodd;fill:#dd9b2d;fill-rule:nonzero;stroke-width:0.06734616;image-rendering:optimizeQuality;shape-rendering:geometricPrecision;text-rendering:geometricPrecision;fill-opacity:1"
         sodipodi:nodetypes="cccccccccccccccccccccccccccccccccccccccccccccccccccccccscccccccccccccccccccccccccccccccccccc" />
    </g>
  </g>
</svg>
